<?xml version="1.0" standalone="no"?>
<!DOCTYPE svg PUBLIC "-//W3C//DTD SVG 20010904//EN"
 "http://www.w3.org/TR/2001/REC-SVG-20010904/DTD/svg10.dtd">
<svg version="1.0" xmlns="http://www.w3.org/2000/svg"
 width="4167.000000pt" height="4167.000000pt" viewBox="0 0 4167.000000 4167.000000"
 preserveAspectRatio="xMidYMid meet">

<g transform="translate(0.000000,4167.000000) scale(0.100000,-0.100000)"
fill="#000000" stroke="none">
<path d="M21490 20465 c-52 -59 -129 -139 -171 -179 l-78 -73 11 -409 c12
-461 5 -2079 -11 -2599 -31 -978 -58 -1617 -106 -2505 -23 -418 -33 -529 -56
-610 -77 -283 -306 -507 -604 -592 -66 -19 -104 -23 -220 -23 -167 0 -247 19
-388 92 -145 75 -235 169 -413 431 -833 1227 -1790 2390 -2840 3451 l-331 335
-98 -78 c-454 -358 -1039 -593 -1598 -642 l-78 -7 -43 -92 c-88 -189 -237
-426 -374 -596 -38 -48 -72 -91 -75 -96 -4 -6 124 -136 284 -289 862 -829
1675 -1752 2401 -2724 1102 -1476 1990 -3057 2643 -4705 342 -863 597 -1677
795 -2540 26 -116 60 -239 73 -273 105 -258 355 -458 630 -506 68 -12 237 -17
819 -22 670 -6 740 -6 817 10 264 54 485 228 595 468 19 40 64 170 101 288 94
303 411 1253 548 1645 1439 4116 2912 7212 4267 8966 479 621 976 1099 1384
1333 204 118 356 168 556 185 112 10 250 43 220 53 -261 89 -410 170 -588 321
-143 120 -285 304 -374 481 -22 45 -41 82 -43 84 -1 1 -45 -18 -97 -43 -199
-94 -481 -171 -717 -195 -492 -49 -1031 88 -1444 366 l-112 76 -109 -113
c-393 -410 -773 -873 -1139 -1391 -143 -201 -246 -297 -400 -369 -111 -52
-208 -72 -347 -72 -154 0 -242 21 -385 92 -242 120 -402 328 -456 591 -8 38
-11 238 -10 630 2 554 -12 1494 -25 1767 l-7 131 -80 -70 c-627 -542 -1568
-520 -2158 49 l-76 74 -93 -106z"/>
</g>
</svg>
